<svg width="468" height="507" viewBox="0 0 468 507" fill="none" xmlns="http://www.w3.org/2000/svg">
<g clip-path="url(#clip0_1_3040)">
<path d="M471.78 -3.48406C455.644 4.07057 429.537 28.2038 454.194 64.2994C478.852 100.395 452.285 120.167 435.919 125.541" stroke="#232324" stroke-width="2"/>
<path d="M263.735 181.967L265.906 181.943L264.477 180.308L187.38 92.1505L282.869 159.955L284.64 161.213L284.444 159.05L273.889 42.4122L311.287 153.395L311.981 155.453L313.094 153.588L373.112 53.0221L338.134 164.791L337.485 166.863L339.482 166.009L447.149 119.928L353.155 189.791L351.412 191.086L353.529 191.568L467.72 217.573L350.613 218.845L348.441 218.869L349.871 220.503L426.968 308.661L331.478 240.856L329.708 239.599L329.904 241.762L340.458 358.399L303.061 247.417L302.367 245.359L301.254 247.224L241.235 347.789L276.214 236.021L276.862 233.948L274.866 234.803L167.199 280.884L261.193 211.021L262.936 209.726L260.818 209.243L146.628 183.239L263.735 181.967Z" fill="#E5E6E4" stroke="#232324" stroke-width="2"/>
</g>
<defs>
<clipPath id="clip0_1_3040">
<rect width="464.449" height="486.024" fill="white" transform="translate(188.93 506.797) rotate(-113.897)"/>
</clipPath>
</defs>
</svg>
